<!-- created by svgstack.com | Attribution is required. --><svg width="120" height="120" viewBox="0 0 120 120" fill="none" xmlns="http://www.w3.org/2000/svg"><path fill-rule="evenodd" clip-rule="evenodd" d="M91.2759 0.249023C108.548 0.249023 119.751 11.4523 119.751 28.7242V91.2759C119.751 108.548 108.548 119.751 91.2759 119.751H28.7241C11.4523 119.751 0.248962 108.548 0.248962 91.2759V28.7242C0.248962 11.4523 11.4523 0.249023 28.7241 0.249023H91.2759Z" fill="white"/><path fill-rule="evenodd" clip-rule="evenodd" d="M8.18564 8.18564C3.27988 13.0914 0.497925 20.143 0.497925 28.7241V91.2759C0.497925 99.8569 3.27988 106.909 8.18564 111.814C13.0914 116.72 20.143 119.502 28.7241 119.502H91.2759C99.8569 119.502 106.909 116.72 111.814 111.814C116.72 106.909 119.502 99.8569 119.502 91.2759V28.7241C119.502 20.143 116.72 13.0914 111.814 8.18564C106.909 3.27988 99.8569 0.497925 91.2759 0.497925H28.7241C20.143 0.497925 13.0914 3.27988 8.18564 8.18564ZM7.83356 7.83356C12.8474 2.81971 20.0333 0 28.7241 0H91.2759C99.9667 0 107.153 2.81971 112.166 7.83356C117.18 12.8474 120 20.0333 120 28.7241V91.2759C120 99.9667 117.18 107.153 112.166 112.166C107.153 117.18 99.9667 120 91.2759 120H28.7241C20.0333 120 12.8474 117.18 7.83356 112.166C2.81971 107.153 0 99.9667 0 91.2759V28.7241C0 20.0333 2.81971 12.8474 7.83356 7.83356Z" fill="#A4A4A4"/><path fill-rule="evenodd" clip-rule="evenodd" d="M73.0231 70.3352C73.0335 70.3371 73.0439 70.339 73.0542 70.3408C73.0542 70.3408 73.0542 70.3371 73.0542 70.3296C81.1144 68.8494 92.6658 56.2494 92.6658 56.2494C92.6658 56.2494 97.2538 51.3853 100.007 45.2556C102.756 39.1356 103.273 31.3834 97.3365 25.4468C85.7986 13.909 73.7143 24.7776 73.0231 25.4178C72.3318 24.7776 60.2476 13.909 48.7097 25.4468C42.7731 31.3834 43.2905 39.1356 46.0393 45.2556C48.7924 51.3853 53.3804 56.2494 53.3804 56.2494C53.3804 56.2494 64.9318 68.8494 72.992 70.3295C72.992 70.3371 72.992 70.3408 72.992 70.3408C73.0023 70.339 73.0127 70.3371 73.0231 70.3352Z" fill="url(#paint0_linear_2_2437)"/><defs><linearGradient id="paint0_linear_2_2437" x1="44.0664" y1="20.1658" x2="44.0664" y2="70.3408" gradientUnits="userSpaceOnUse"><stop stop-color="#FF60AB"/><stop offset="1" stop-color="#FF281B"/></linearGradient></defs></svg> 