<!-- created by svgstack.com | Attribution is required. --><svg width="120" height="120" viewBox="22 12 82 82" fill="none" xmlns="http://www.w3.org/2000/svg"><path fill-rule="evenodd" clip-rule="evenodd" d="M73.0231 70.3352C73.0335 70.3371 73.0439 70.339 73.0542 70.3408C73.0542 70.3408 73.0542 70.3371 73.0542 70.3296C81.1144 68.8494 92.6658 56.2494 92.6658 56.2494C92.6658 56.2494 97.2538 51.3853 100.007 45.2556C102.756 39.1356 103.273 31.3834 97.3365 25.4468C85.7986 13.909 73.7143 24.7776 73.0231 25.4178C72.3318 24.7776 60.2476 13.909 48.7097 25.4468C42.7731 31.3834 43.2905 39.1356 46.0393 45.2556C48.7924 51.3853 53.3804 56.2494 53.3804 56.2494C53.3804 56.2494 64.9318 68.8494 72.992 70.3295C72.992 70.3371 72.992 70.3408 72.992 70.3408C73.0023 70.339 73.0127 70.3371 73.0231 70.3352Z" fill="url(#paint0_linear_2_2437)"/><defs><linearGradient id="paint0_linear_2_2437" x1="44.0664" y1="20.1658" x2="44.0664" y2="70.3408" gradientUnits="userSpaceOnUse"><stop stop-color="#FF60AB"/><stop offset="1" stop-color="#FF281B"/></linearGradient></defs></svg>
