<svg xmlns="http://www.w3.org/2000/svg" viewBox="0 -2.27 22.5391 22.5391">
  <path d="M3.06641 17.8711L19.4043 17.8711C21.1523 17.8711 22.1777 16.8555 22.1777 14.8438L22.1777 4.81445C22.1777 2.80273 21.1426 1.78711 19.1113 1.78711L9.24805 1.78711C8.58398 1.78711 8.18359 1.63086 7.69531 1.21094L7.09961 0.722656C6.45508 0.175781 5.95703 0 4.99023 0L2.69531 0C0.986328 0 0 0.976562 0 2.93945L0 14.8438C0 16.8652 1.02539 17.8711 3.06641 17.8711ZM1.80664 5.39062L1.80664 4.84375C1.80664 4.24805 2.22656 3.86719 2.95898 3.86719L19.1797 3.86719C19.9023 3.86719 20.332 4.24805 20.332 4.84375L20.332 5.39062Z" fill="currentColor"/>
  <!-- SF Symbol "bubble.fill" overlay, scaled 0.457, centered on front face -->
  <g transform="translate(7.441, 7.853) scale(0.35)" fill="#ffffff">
    <path d="M5.80078 21.5723C6.18164 21.5723 6.46484 21.377 6.92383 20.9473L10.4492 17.7246L17.0508 17.7246C19.9609 17.7246 21.5234 16.123 21.5234 13.2617L21.5234 5.78125C21.5234 2.91992 19.9609 1.30859 17.0508 1.30859L4.47266 1.30859C1.5625 1.30859 0 2.91016 0 5.78125L0 13.2617C0 16.1328 1.5625 17.7246 4.47266 17.7246L4.93164 17.7246L4.93164 20.5664C4.93164 21.1719 5.24414 21.5723 5.80078 21.5723Z"/>
  </g>
</svg>
