<svg xmlns="http://www.w3.org/2000/svg" viewBox="0 -2.27 22.5391 22.5391">
  <path d="M3.06641 17.8711L19.4043 17.8711C21.1523 17.8711 22.1777 16.8555 22.1777 14.8438L22.1777 4.81445C22.1777 2.80273 21.1426 1.78711 19.1113 1.78711L9.24805 1.78711C8.58398 1.78711 8.18359 1.63086 7.69531 1.21094L7.09961 0.722656C6.45508 0.175781 5.95703 0 4.99023 0L2.69531 0C0.986328 0 0 0.976562 0 2.93945L0 14.8438C0 16.8652 1.02539 17.8711 3.06641 17.8711ZM1.80664 5.39062L1.80664 4.84375C1.80664 4.24805 2.22656 3.86719 2.95898 3.86719L19.1797 3.86719C19.9023 3.86719 20.332 4.24805 20.332 4.84375L20.332 5.39062Z" fill="currentColor"/>
  <!-- SF Symbol "safari.fill" overlay, scaled 0.444, centered on front face -->
  <g transform="translate(7.822, 8.240) scale(0.34)" fill="#ffffff" fill-rule="evenodd">
    <path d="M19.9219 9.96094C19.9219 15.4492 15.459 19.9219 9.96094 19.9219C4.47266 19.9219 0 15.4492 0 9.96094C0 4.46289 4.47266 0 9.96094 0C15.459 0 19.9219 4.46289 19.9219 9.96094ZM14.1699 4.88281L8.4082 7.69531C8.0957 7.8418 7.88086 8.05664 7.71484 8.39844L4.88281 14.1797C4.57031 14.8438 5.08789 15.3711 5.76172 15.0488L11.5332 12.2168C11.8555 12.0703 12.0801 11.8359 12.2363 11.5234L15.0488 5.75195C15.3809 5.06836 14.8828 4.54102 14.1699 4.88281ZM11.2109 9.9707C11.2109 10.6543 10.6543 11.2109 9.9707 11.2109C9.29688 11.2109 8.74023 10.6543 8.74023 9.9707C8.74023 9.28711 9.29688 8.74023 9.9707 8.74023C10.6543 8.74023 11.2109 9.28711 11.2109 9.9707Z"/>
  </g>
</svg>
